<svg xmlns="http://www.w3.org/2000/svg" xmlns:xlink="http://www.w3.org/1999/xlink" viewBox="0 0 269.86 187.56"><defs><style>
  @keyframes flash {
    0%{opacity: 1;}
    50%{opacity: 0;}
    100%{opacity: 1;}
  }
  
  @keyframes shake {
    0%, 90% {
      transform: translate3d(0,0, 0);
    }

    20%, 80% {
      transform: translate3d(0,1px, 0);
    }

    30%, 50%, 70% {
      transform: translate3d(0,0, 0);
    }

    40%, 60% {
      transform: translate3d(0, 2px, 0);
    }
  }
  
  .cls-7 {animation: shake 10s linear infinite;}
  
  .cls-3{animation: flash 5s infinite;}
  .cls-4 {animation: flash 7s infinite;}
  .cls-5 {animation: flash 10s infinite;}
  
  .cls-1{fill:url(#radial-gradient);}.cls-2{fill:#231f20;}.cls-3,.cls-4,.cls-5,.cls-6,.cls-7{stroke:#231f20;stroke-miterlimit:10;}.cls-3,.cls-4,.cls-5{stroke-width:0.75px;}.cls-3{fill:url(#radial-gradient-2);}.cls-4{fill:url(#radial-gradient-3);}.cls-5{fill:url(#radial-gradient-4);}.cls-6,.cls-7{stroke-width:0.6px;}.cls-6{fill:url(#linear-gradient);}.cls-7{fill:url(#linear-gradient-2);}</style><radialGradient id="radial-gradient" cx="32.01" cy="88.34" r="63.2" gradientTransform="translate(127.58 12.92) rotate(-20.94)" gradientUnits="userSpaceOnUse"><stop offset="0" stop-color="#e6e7e8"/><stop offset="0.83" stop-color="#939598"/></radialGradient><radialGradient id="radial-gradient-2" cx="221.11" cy="48.86" r="18.24" gradientUnits="userSpaceOnUse"><stop offset="0" stop-color="#f9ed32"/><stop offset="0.83" stop-color="#d7df23"/></radialGradient><radialGradient id="radial-gradient-3" cx="112.26" cy="56.24" r="18.24" xlink:href="#radial-gradient-2"/><radialGradient id="radial-gradient-4" cx="247.44" cy="94.11" r="20.76" xlink:href="#radial-gradient-2"/><linearGradient id="linear-gradient" x1="112.26" y1="187.26" x2="112.26" y2="71.38" gradientUnits="userSpaceOnUse"><stop offset="0" stop-color="#a9abae"/><stop offset="0.17" stop-color="#f8f8f9"/><stop offset="0.29" stop-color="#fff"/><stop offset="0.36" stop-color="#fff"/><stop offset="0.5" stop-color="#f8f8f9"/><stop offset="1" stop-color="#d1d3d4"/></linearGradient><linearGradient id="linear-gradient-2" x1="109.15" y1="180.48" x2="109.15" y2="64.61" gradientUnits="userSpaceOnUse"><stop offset="0" stop-color="#efeff0"/><stop offset="0.17" stop-color="#f8f8f9"/><stop offset="0.36" stop-color="#fff"/><stop offset="0.69" stop-color="#fff"/><stop offset="0.85" stop-color="#f8f8f9"/><stop offset="1" stop-color="#ebebec"/></linearGradient></defs><title>moonWithCloud</title><g id="Layer_2" data-name="Layer 2"><g id="Layer_1-2" data-name="Layer 1"><path class="cls-1" d="M260.46,131.47A74.26,74.26,0,1,1,210.52,1a74.28,74.28,0,0,0,49.94,130.51Z"/><path class="cls-2" d="M260.53,131.55a72.25,72.25,0,0,1-14.63,10.16,67.28,67.28,0,0,1-8.16,3.67c-1.39.51-2.77,1-4.22,1.45l-2.15.66-2.17.55a78.16,78.16,0,0,1-8.81,1.65,77.32,77.32,0,0,1-9,.53,73.34,73.34,0,0,1-17.8-2.22,74.18,74.18,0,0,1-16.78-6.38,73.73,73.73,0,0,1-26.58-23.73,74.74,74.74,0,0,1-12.38-33.3,73.79,73.79,0,0,1,0-17.84A77,77,0,0,1,142,49.42a74.43,74.43,0,0,1,8.07-15.9A73,73,0,0,1,161.63,19.9a77.3,77.3,0,0,1,6.92-5.69,78.18,78.18,0,0,1,7.59-4.78,76.43,76.43,0,0,1,16.6-6.77A73.26,73.26,0,0,1,210.51,0l2.38,0-1.77,1.66L207,5.5l-3.78,4.14-3.45,4.42-3.1,4.67c-.91,1.63-1.85,3.25-2.74,4.89s-1.61,3.37-2.36,5.08-1.36,3.48-2,5.25-1.11,3.57-1.57,5.38-.86,3.64-1.17,5.48-.58,3.69-.75,5.55-.3,3.73-.32,5.59,0,3.74.11,5.6.28,3.73.54,5.58.58,3.69,1,5.52.89,3.63,1.38,5.43l1.76,5.28,2.21,5.24c.82,1.68,1.7,3.31,2.55,5s2,3.18,2.93,4.78,2.2,3,3.29,4.55,2.43,2.85,3.63,4.28,2.64,2.66,4,4,2.84,2.45,4.25,3.69,3,2.24,4.51,3.37,3.17,2,4.76,3,3.32,1.76,5,2.65,3.45,1.5,5.17,2.26,3.55,1.23,5.33,1.87l5.46,1.48,5.56,1.06,5.63.63,5.92.2Zm-.35,0-5.4,0-5.68-.46-5.64-.9c-1.85-.44-3.71-.86-5.56-1.33s-3.63-1.15-5.44-1.77-3.54-1.42-5.29-2.19-3.43-1.67-5.11-2.58-3.31-1.92-4.9-3-3.16-2.16-4.67-3.34-3-2.4-4.39-3.7-2.79-2.62-4.09-4-2.58-2.83-3.77-4.33-2.35-3-3.43-4.61-2.1-3.21-3.07-4.87-1.84-3.4-2.7-5.11l-2.27-5.21-1.88-5.48c-.52-1.85-1-3.72-1.44-5.58s-.67-3.78-1-5.67-.38-3.82-.57-5.73-.08-3.84-.13-5.76.21-3.83.31-5.75.51-3.81.75-5.71.8-3.76,1.19-5.64,1.08-3.69,1.62-5.53,1.37-3.59,2.06-5.38,1.64-3.47,2.46-5.21,1.9-3.34,2.85-5,2.15-3.18,3.22-4.77l3.58-4.51,3.91-4.22L209.93.27l.62,1.61a73.66,73.66,0,0,0-33.76,8.72,70.38,70.38,0,0,0-14.43,10.09,72.59,72.59,0,0,0-19.74,29l-.76,2.08-.66,2.11c-.47,1.4-.79,2.84-1.18,4.27s-.62,2.89-.88,4.34-.49,2.91-.61,4.39a71.74,71.74,0,0,0,.18,17.66A73.74,73.74,0,0,0,151.51,117a74.47,74.47,0,0,0,26.15,23A72.48,72.48,0,0,0,194,146.43a71.78,71.78,0,0,0,17.41,2.3,70.32,70.32,0,0,0,17.49-1.83l2.15-.5,2.11-.61c1.41-.37,2.81-.88,4.22-1.36a74,74,0,0,0,8.15-3.41A75.49,75.49,0,0,0,260.17,131.57Z"/><polygon class="cls-3" points="221.12 31.08 225.53 44.66 239.81 44.66 228.25 53.05 232.67 66.64 221.12 58.24 209.56 66.64 213.97 53.05 202.42 44.66 216.7 44.66 221.12 31.08"/><polygon class="cls-4" points="112.26 38.46 116.68 52.04 130.96 52.04 119.4 60.43 123.81 74.02 112.26 65.62 100.71 74.02 105.12 60.43 93.57 52.04 107.85 52.04 112.26 38.46"/><polygon class="cls-5" points="247.44 73.88 252.46 89.33 268.71 89.33 255.56 98.89 260.58 114.34 247.44 104.79 234.29 114.34 239.31 98.89 226.16 89.33 242.41 89.33 247.44 73.88"/><path class="cls-6" d="M221.11,149.82c0,19.74-21.38,35.74-47.75,35.74q-2,0-4-.12a25.22,25.22,0,0,1-9.43,1.82H57.18a25.19,25.19,0,0,1-9.12-1.69c-24.67,0-44.64-14.62-44.64-32.62,0-14,12.16-26,29.21-30.61a42.7,42.7,0,0,1,79.95-27.62,52.2,52.2,0,0,1,13-1.64c17.44,0,32.78,8.49,41.55,21.31,2-.2,4.1-.3,6.2-.3C199.73,114.08,221.11,130.07,221.11,149.82Z"/><path class="cls-7" d="M218,143c0,19.74-21.38,35.74-47.75,35.74q-2,0-4-.12a25.22,25.22,0,0,1-9.43,1.82H54.07a25.19,25.19,0,0,1-9.12-1.69C20.28,178.75.3,164.16.3,146.16c0-14,12.16-26,29.21-30.61a42.7,42.7,0,0,1,79.95-27.62,52.2,52.2,0,0,1,13-1.64c17.44,0,32.78,8.49,41.55,21.31,2-.2,4.1-.3,6.2-.3C196.62,107.3,218,123.3,218,143Z"/></g></g></svg>