<svg xmlns="http://www.w3.org/2000/svg" xmlns:xlink="http://www.w3.org/1999/xlink" viewBox="0 0 166.84 150.23"><defs><style>
  @keyframes flash {
    0%{opacity: 1;}
    50%{opacity: 0;}
    100%{opacity: 1;}
  }
  .cls-3{animation: flash 5s infinite;}
  .cls-4 {animation: flash 7s infinite;}
  .cls-5 {animation: flash 10s infinite;}
  
  .cls-1{fill:url(#radial-gradient);}.cls-2{fill:#231f20;}.cls-3,.cls-4,.cls-5{stroke:#231f20;stroke-miterlimit:10;stroke-width:0.75px;}.cls-3{fill:url(#radial-gradient-2);}.cls-4{fill:url(#radial-gradient-3);}.cls-5{fill:url(#radial-gradient-4);}</style><radialGradient id="radial-gradient" cx="53.25" cy="81.61" r="63.2" gradientTransform="translate(-27.17 26.8) rotate(-20.94)" gradientUnits="userSpaceOnUse"><stop offset="0" stop-color="#e6e7e8"/><stop offset="0.83" stop-color="#939598"/></radialGradient><radialGradient id="radial-gradient-2" cx="90.57" cy="67.2" r="18.18" gradientUnits="userSpaceOnUse"><stop offset="0" stop-color="#f9ed32"/><stop offset="0.83" stop-color="#d7df23"/></radialGradient><radialGradient id="radial-gradient-3" cx="114.3" cy="19.75" r="18.24" xlink:href="#radial-gradient-2"/><radialGradient id="radial-gradient-4" cx="144.41" cy="84.92" r="20.76" xlink:href="#radial-gradient-2"/></defs><title>moon</title><g id="Layer_2" data-name="Layer 2"><g id="Layer_1-2" data-name="Layer 1"><path class="cls-1" d="M123.14,131.47A74.26,74.26,0,1,1,73.2,1a74.28,74.28,0,0,0,49.94,130.51Z"/><path class="cls-2" d="M123.2,131.55a72.25,72.25,0,0,1-14.63,10.16,67.3,67.3,0,0,1-8.16,3.67c-1.39.51-2.77,1-4.22,1.45l-2.15.66-2.17.55a78.15,78.15,0,0,1-8.81,1.65,77.3,77.3,0,0,1-9,.53A73.34,73.34,0,0,1,56.3,148a74.18,74.18,0,0,1-16.78-6.38,71.74,71.74,0,0,1-14.75-10.24A71,71,0,0,1,12.93,117.9,74.74,74.74,0,0,1,.55,84.59a73.79,73.79,0,0,1,0-17.84A77,77,0,0,1,4.68,49.42a74.43,74.43,0,0,1,8.07-15.9A73,73,0,0,1,24.31,19.9a77.29,77.29,0,0,1,6.92-5.69,78.18,78.18,0,0,1,7.59-4.78,76.43,76.43,0,0,1,16.6-6.77A73.26,73.26,0,0,1,73.18,0l2.38,0L73.8,1.66,69.71,5.5,65.92,9.64l-3.45,4.42-3.1,4.67c-.91,1.63-1.85,3.25-2.74,4.89S55,27,54.27,28.71s-1.36,3.48-2,5.25-1.11,3.57-1.57,5.38-.86,3.64-1.17,5.48-.58,3.69-.75,5.55-.3,3.73-.32,5.59,0,3.74.11,5.6.28,3.73.54,5.58.58,3.69,1,5.52.89,3.63,1.38,5.43l1.76,5.28,2.21,5.24c.82,1.68,1.7,3.31,2.55,5s2,3.18,2.93,4.78,2.2,3,3.29,4.55,2.43,2.85,3.63,4.28,2.64,2.66,4,4,2.84,2.45,4.25,3.69,3,2.24,4.51,3.37,3.17,2,4.76,3,3.32,1.76,5,2.65,3.45,1.5,5.17,2.26,3.55,1.23,5.33,1.87l5.46,1.48,5.56,1.06,5.63.63,5.92.2Zm-.35,0-5.4,0-5.68-.46-5.64-.9c-1.85-.44-3.71-.86-5.56-1.33s-3.64-1.15-5.44-1.77-3.54-1.42-5.29-2.19-3.43-1.67-5.11-2.58-3.31-1.92-4.9-3-3.16-2.16-4.67-3.34-3-2.4-4.39-3.7-2.79-2.62-4.09-4-2.58-2.83-3.77-4.33-2.35-3-3.43-4.61-2.1-3.21-3.07-4.87-1.84-3.4-2.7-5.11l-2.27-5.21-1.88-5.48c-.52-1.85-1-3.72-1.44-5.58s-.67-3.78-1-5.67-.38-3.82-.57-5.73-.08-3.84-.13-5.76.21-3.83.31-5.75.51-3.81.75-5.71.8-3.76,1.19-5.64,1.08-3.69,1.62-5.53,1.37-3.59,2.06-5.38,1.64-3.47,2.46-5.21,1.9-3.34,2.85-5,2.15-3.18,3.22-4.77L64.47,8.4l3.91-4.22L72.6.27l.62,1.61A73.66,73.66,0,0,0,39.45,10.6,70.37,70.37,0,0,0,25,20.69a72.59,72.59,0,0,0-19.74,29l-.76,2.08-.66,2.11c-.47,1.4-.79,2.84-1.18,4.27S2.07,61,1.8,62.45s-.49,2.91-.61,4.39a71.74,71.74,0,0,0,.18,17.66A73.74,73.74,0,0,0,14.19,117a74.47,74.47,0,0,0,26.15,23,72.48,72.48,0,0,0,16.36,6.36,71.78,71.78,0,0,0,17.41,2.3,76.8,76.8,0,0,0,8.8-.36,76.92,76.92,0,0,0,8.69-1.46l2.15-.5,2.11-.61c1.41-.37,2.81-.88,4.22-1.36a74,74,0,0,0,8.15-3.41A75.49,75.49,0,0,0,122.85,131.57Z"/><polygon class="cls-3" points="90.57 49.49 94.97 63.02 109.2 63.02 97.69 71.38 102.08 84.92 90.57 76.55 79.06 84.92 83.46 71.38 71.95 63.02 86.18 63.02 90.57 49.49"/><polygon class="cls-4" points="114.3 1.98 118.71 15.55 132.99 15.55 121.44 23.95 125.85 37.53 114.3 29.14 102.75 37.53 107.16 23.95 95.61 15.55 109.89 15.55 114.3 1.98"/><polygon class="cls-5" points="144.41 64.69 149.44 80.14 165.69 80.14 152.54 89.69 157.56 105.15 144.41 95.6 131.27 105.15 136.29 89.69 123.14 80.14 139.39 80.14 144.41 64.69"/></g></g></svg>