<svg xmlns="http://www.w3.org/2000/svg" xmlns:xlink="http://www.w3.org/1999/xlink" viewBox="0 0 307.8 255.19"><defs><style>
  
  @keyframes flash {
    from{opacity: 1;}
    to{opacity: 0;}
  }
  @keyframes shake {
  0%, 90% {
    transform: translate3d(0,0, 0);
  }
  
  20%, 80% {
    transform: translate3d(0,3px, 0);
  }

  30%, 50%, 70% {
    transform: translate3d(0,0, 0);
  }

  40%, 60% {
    transform: translate3d(0, 5px, 0);
  }
}
  .cls-1,.cls-2,.cls-3,.cls-4 {
    animation: shake 8s cubic-bezier(.36,.07,.19,.97) both infinite;
  }
  
  .cls-12 {animation:flash 2.3s infinite}
  .cls-11{animation:flash 1.2s infinite}
  .cls-10{animation:flash 1.5s infinite}
  .cls-9 {animation:flash 2.4s infinite}
  .cls-8{animation:flash 1.3s infinite}
  .cls-7{animation:flash 1.5s infinite}
  .cls-6 {animation:flash 2.1s infinite}
  .cls-5{animation:flash 1s infinite}
  
  .cls-1,.cls-10,.cls-11,.cls-12,.cls-2,.cls-5,.cls-6,.cls-7,.cls-8,.cls-9{stroke:#231f20;}.cls-1,.cls-10,.cls-11,.cls-12,.cls-2,.cls-3,.cls-4,.cls-5,.cls-6,.cls-7,.cls-8,.cls-9{stroke-miterlimit:10;}.cls-1,.cls-2{stroke-width:0.51px;}.cls-1{fill:url(#linear-gradient);}.cls-2{fill:url(#linear-gradient-2);}.cls-3,.cls-4{stroke:#a7a9ac;stroke-width:0.73px;}.cls-3{fill:url(#linear-gradient-3);}.cls-4{fill:url(#linear-gradient-4);}.cls-5{stroke-width:0.3px;fill:url(#New_Gradient_Swatch_1);}.cls-6,.cls-7{stroke-width:0.39px;}.cls-6{fill:url(#New_Gradient_Swatch_1-2);}.cls-7{fill:url(#New_Gradient_Swatch_1-3);}.cls-8{stroke-width:0.45px;fill:url(#New_Gradient_Swatch_1-4);}.cls-9{stroke-width:0.45px;fill:url(#New_Gradient_Swatch_1-5);}.cls-10,.cls-11{stroke-width:0.35px;}.cls-10{fill:url(#New_Gradient_Swatch_1-6);}.cls-11{fill:url(#New_Gradient_Swatch_1-7);}.cls-12{stroke-width:0.4px;fill:url(#New_Gradient_Swatch_1-8);}</style><linearGradient id="linear-gradient" x1="216.23" y1="86.34" x2="216.23" y2="0.25" gradientUnits="userSpaceOnUse"><stop offset="0" stop-color="#545456"/><stop offset="1" stop-color="#797a7d"/></linearGradient><linearGradient id="linear-gradient-2" x1="218.66" y1="91.7" x2="218.66" y2="5.61" gradientUnits="userSpaceOnUse"><stop offset="0" stop-color="#6b6c6f"/><stop offset="1" stop-color="#a9abae"/></linearGradient><linearGradient id="linear-gradient-3" x1="116.56" y1="151.82" x2="116.56" y2="31.57" gradientUnits="userSpaceOnUse"><stop offset="0" stop-color="#a9abae"/><stop offset="0.17" stop-color="#f8f8f9"/><stop offset="0.29" stop-color="#fff"/><stop offset="0.36" stop-color="#fff"/><stop offset="0.5" stop-color="#f8f8f9"/><stop offset="1" stop-color="#d1d3d4"/></linearGradient><linearGradient id="linear-gradient-4" x1="113.33" y1="144.79" x2="113.33" y2="24.54" gradientUnits="userSpaceOnUse"><stop offset="0" stop-color="#efeff0"/><stop offset="0.17" stop-color="#f8f8f9"/><stop offset="0.36" stop-color="#fff"/><stop offset="0.69" stop-color="#fff"/><stop offset="0.85" stop-color="#f8f8f9"/><stop offset="1" stop-color="#ebebec"/></linearGradient><linearGradient id="New_Gradient_Swatch_1" x1="234.13" y1="1510.48" x2="234.13" y2="1460.44" gradientTransform="matrix(-1, 0.02, -0.02, -1, 492.49, 1605.92)" gradientUnits="userSpaceOnUse"><stop offset="0" stop-color="#4954a4"/><stop offset="1" stop-color="#5bcaeb"/></linearGradient><linearGradient id="New_Gradient_Swatch_1-2" x1="194.54" y1="1694.91" x2="194.54" y2="1609.43" gradientTransform="matrix(-0.75, 0.01, -0.01, -0.78, 447.06, 1430.91)" xlink:href="#New_Gradient_Swatch_1"/><linearGradient id="New_Gradient_Swatch_1-3" x1="239.39" y1="1634.31" x2="239.39" y2="1548.83" gradientTransform="matrix(-0.75, 0.01, -0.01, -0.78, 447.06, 1430.91)" xlink:href="#New_Gradient_Swatch_1"/><linearGradient id="New_Gradient_Swatch_1-4" x1="274.74" y1="1493.13" x2="274.74" y2="1407.66" gradientTransform="matrix(-0.78, 0.01, -0.02, -1, 428.88, 1608.71)" xlink:href="#New_Gradient_Swatch_1"/><linearGradient id="New_Gradient_Swatch_1-5" x1="369.04" y1="1501.65" x2="369.04" y2="1425.22" gradientTransform="matrix(1, 0.02, 0.02, -1, -290.16, 1605.92)" xlink:href="#New_Gradient_Swatch_1"/><linearGradient id="New_Gradient_Swatch_1-6" x1="377.81" y1="1644.51" x2="377.81" y2="1568.08" gradientTransform="matrix(0.75, 0.01, 0.01, -0.78, -244.73, 1430.91)" xlink:href="#New_Gradient_Swatch_1"/><linearGradient id="New_Gradient_Swatch_1-7" x1="417.91" y1="1590.33" x2="417.91" y2="1513.91" gradientTransform="matrix(0.75, 0.01, 0.01, -0.78, -244.73, 1430.91)" xlink:href="#New_Gradient_Swatch_1"/><linearGradient id="New_Gradient_Swatch_1-8" x1="438.8" y1="1454.27" x2="438.8" y2="1377.84" gradientTransform="matrix(0.78, 0.01, 0.02, -1, -226.55, 1608.71)" xlink:href="#New_Gradient_Swatch_1"/></defs><title>rain</title><g id="Layer_2" data-name="Layer 2"><g id="Layer_1-2" data-name="Layer 1"><path class="cls-1" d="M275.79,32.23c0-.09,0-.18,0-.27,0-12.95-14.39-23.44-32.14-23.44a43.6,43.6,0,0,0-7.91.72,37.09,37.09,0,0,0-51,2.46A30.69,30.69,0,0,0,141,36.21h0c-8.26,4.24-13.65,11.25-13.65,19.18,0,12.95,14.38,23.44,32.13,23.44a43.85,43.85,0,0,0,7.15-.58c-.76-.6-1.48-1.24-2.16-1.89a18.22,18.22,0,0,0,5.79.94h.66a42.63,42.63,0,0,1-4.29.95c6.26,5,15.14,8.08,25,8.08a41.5,41.5,0,0,0,22.44-6.26,41.5,41.5,0,0,0,22.44,6.26,42.17,42.17,0,0,0,20.61-5.15,44.12,44.12,0,0,0,13.7,2.13c19,0,34.31-11.5,34.31-25.69C305.11,44.72,292.38,34,275.79,32.23ZM247.93,76.91l.14,0h0Z"/><path class="cls-2" d="M278.23,37.58c0-.09,0-.18,0-.27,0-12.95-14.39-23.44-32.14-23.44a43.6,43.6,0,0,0-7.91.72,37.09,37.09,0,0,0-51,2.46,30.69,30.69,0,0,0-43.78,24.52h0c-8.26,4.24-13.65,11.25-13.65,19.18,0,12.95,14.38,23.44,32.13,23.44a43.85,43.85,0,0,0,7.15-.58c-.76-.6-1.48-1.24-2.16-1.89a18.22,18.22,0,0,0,5.79.94h.66a42.63,42.63,0,0,1-4.29.95c6.26,5,15.14,8.08,25,8.08a41.5,41.5,0,0,0,22.44-6.26,41.5,41.5,0,0,0,22.44,6.26,42.17,42.17,0,0,0,20.61-5.15,44.12,44.12,0,0,0,13.7,2.13c19,0,34.31-11.5,34.31-25.69C307.55,50.08,294.81,39.39,278.23,37.58ZM250.37,82.26l.14,0h0Z"/><path class="cls-3" d="M229.52,113c0,20.49-22.19,37.09-49.55,37.09q-2.09,0-4.13-.13a26.17,26.17,0,0,1-9.79,1.88H59.39a26.14,26.14,0,0,1-9.47-1.76c-25.6,0-46.33-15.18-46.33-33.85,0-14.57,12.62-27,30.32-31.77a44.31,44.31,0,0,1,83-28.66,54.18,54.18,0,0,1,13.54-1.7c18.1,0,34,8.81,43.12,22.11,2.1-.2,4.25-.31,6.43-.31C207.33,75.88,229.52,92.48,229.52,113Z"/><path class="cls-4" d="M226.29,105.94c0,20.49-22.19,37.09-49.55,37.09q-2.09,0-4.13-.13a26.17,26.17,0,0,1-9.79,1.88H56.16A26.14,26.14,0,0,1,46.7,143C21.1,143,.37,127.85.37,109.18c0-14.57,12.62-27,30.32-31.77a44.31,44.31,0,0,1,83-28.66A54.18,54.18,0,0,1,127.19,47c18.1,0,34,8.81,43.12,22.11,2.1-.2,4.25-.31,6.43-.31C204.1,68.85,226.29,85.45,226.29,105.94Z"/><path class="cls-5" d="M217.8,134.08c-.15-8.73,15.23-34.5,15.23-34.5s16.23,25.24,16.38,34a15.81,15.81,0,0,1-31.61.53Z"/><path class="cls-6" d="M258.73,156.93c-.2-11.63,19.57-46,19.57-46s20.91,33.65,21.11,45.29-8.75,21.22-20,21.41S258.93,168.57,258.73,156.93Z"/><path class="cls-7" d="M225.73,204.78c-.2-11.63,19.57-46,19.57-46s20.91,33.65,21.11,45.29-8.75,21.22-20,21.41S225.93,216.41,225.73,204.78Z"/><path class="cls-8" d="M168.32,174.94c-.25-14.94,20.17-59,20.17-59s21.89,43.31,22.14,58.25-9,27.22-20.7,27.41S168.57,189.88,168.32,174.94Z"/><path class="cls-9" d="M127.3,163.37C127.52,150,104,110.68,104,110.68s-24.79,38.54-25,51.87a24.14,24.14,0,1,0,48.27.81Z"/><path class="cls-10" d="M78.93,193.7c.17-10.4-17.5-41.1-17.5-41.1s-18.7,30.09-18.87,40.49,7.83,19,17.87,19.14S78.76,204.1,78.93,193.7Z"/><path class="cls-11" d="M108.44,236.48c.17-10.4-17.5-41.1-17.5-41.1s-18.7,30.09-18.87,40.49,7.83,19,17.87,19.14S108.26,246.88,108.44,236.48Z"/><path class="cls-12" d="M159.77,209.8c.22-13.36-18-52.72-18-52.72s-19.57,38.72-19.79,52.08,8.06,24.33,18.51,24.51S159.54,223.16,159.77,209.8Z"/></g></g></svg>