<svg xmlns="http://www.w3.org/2000/svg" xmlns:xlink="http://www.w3.org/1999/xlink" viewBox="0 0 343.42 204.28"><defs><style>
  @keyframes flash {
    from{opacity: 1;}
    to{opacity: 0;}
  }
  @keyframes shake {
  0%, 90% {
    transform: translate3d(0,0, 0);
  }
  
  20%, 80% {
    transform: translate3d(0,3px, 0);
  }

  30%, 50%, 70% {
    transform: translate3d(0,0, 0);
  }

  40%, 60% {
    transform: translate3d(0, 5px, 0);
  }
}
  .cls-1,.cls-2,.cls-3,.cls-4 {
    animation: shake 16s cubic-bezier(.36,.07,.19,.97) both infinite;
  }
  
  #f1 {animation:flash 4s infinite}
  #f2{animation:flash 2s infinite}
  #f3{animation:flash 3s infinite}
  
  .cls-1,.cls-2{stroke:#231f20;stroke-width:0.64px;}.cls-1,.cls-2,.cls-3,.cls-4,.cls-5,.cls-6,.cls-7{stroke-miterlimit:10;}.cls-1{fill:url(#linear-gradient);}.cls-2{fill:url(#linear-gradient-2);}.cls-3,.cls-4{stroke:#a7a9ac;stroke-width:0.73px;}.cls-3{fill:url(#linear-gradient-3);}.cls-4{fill:url(#linear-gradient-4);}.cls-5,.cls-6,.cls-7{stroke:#00aeef;}.cls-5{fill:url(#New_Gradient_Swatch_2);}.cls-6{fill:url(#New_Gradient_Swatch_2-2);}.cls-7{stroke-width:0.72px;fill:url(#New_Gradient_Swatch_2-3);}</style><linearGradient id="linear-gradient" x1="227.98" y1="108.84" x2="227.98" y2="0.32" gradientUnits="userSpaceOnUse"><stop offset="0" stop-color="#545456"/><stop offset="1" stop-color="#797a7d"/></linearGradient><linearGradient id="linear-gradient-2" x1="231.05" y1="115.59" x2="231.05" y2="7.07" gradientUnits="userSpaceOnUse"><stop offset="0" stop-color="#6b6c6f"/><stop offset="1" stop-color="#a9abae"/></linearGradient><linearGradient id="linear-gradient-3" x1="116.56" y1="143.2" x2="116.56" y2="22.96" gradientUnits="userSpaceOnUse"><stop offset="0" stop-color="#a9abae"/><stop offset="0.17" stop-color="#f8f8f9"/><stop offset="0.29" stop-color="#fff"/><stop offset="0.36" stop-color="#fff"/><stop offset="0.5" stop-color="#f8f8f9"/><stop offset="1" stop-color="#d1d3d4"/></linearGradient><linearGradient id="linear-gradient-4" x1="113.33" y1="136.17" x2="113.33" y2="15.92" gradientUnits="userSpaceOnUse"><stop offset="0" stop-color="#efeff0"/><stop offset="0.17" stop-color="#f8f8f9"/><stop offset="0.36" stop-color="#fff"/><stop offset="0.69" stop-color="#fff"/><stop offset="0.85" stop-color="#f8f8f9"/><stop offset="1" stop-color="#ebebec"/></linearGradient><radialGradient id="New_Gradient_Swatch_2" cx="257.74" cy="119.11" r="41.11" gradientUnits="userSpaceOnUse"><stop offset="0" stop-color="#dbf0f2"/><stop offset="0.83" stop-color="#4954a4"/></radialGradient><radialGradient id="New_Gradient_Swatch_2-2" cx="56.54" cy="133.65" r="41.11" xlink:href="#New_Gradient_Swatch_2"/><radialGradient id="New_Gradient_Swatch_2-3" cx="145.49" cy="163.51" r="29.6" gradientTransform="translate(-24.75 56.75) rotate(-16.15)" xlink:href="#New_Gradient_Swatch_2"/></defs><title>snow</title><g id="Layer_2" data-name="Layer 2"><g id="Layer_1-2" data-name="Layer 1"><path class="cls-1" d="M303.07,40.62c0-.12,0-.23,0-.34,0-16.32-18.14-29.55-40.51-29.55a55,55,0,0,0-10,.9,46.75,46.75,0,0,0-64.26,3.11,38.69,38.69,0,0,0-55.19,30.91h0C122.74,51,115.94,59.84,115.94,69.83c0,16.32,18.13,29.55,40.5,29.55a55.27,55.27,0,0,0,9-.73c-1-.76-1.87-1.56-2.72-2.38a23,23,0,0,0,7.3,1.18h.83a53.74,53.74,0,0,1-5.41,1.2c7.89,6.27,19.08,10.19,31.5,10.19A52.31,52.31,0,0,0,225.24,101a52.31,52.31,0,0,0,28.29,7.89,53.15,53.15,0,0,0,26-6.49A55.61,55.61,0,0,0,296.78,105C320.67,105,340,90.54,340,72.66,340,56.38,324,42.9,303.07,40.62ZM268,96.94l.17,0h0Z"/><path class="cls-2" d="M306.14,47.37c0-.12,0-.23,0-.34,0-16.32-18.14-29.55-40.51-29.55a55,55,0,0,0-10,.9,46.75,46.75,0,0,0-64.26,3.11A38.69,38.69,0,0,0,136.22,52.4h0C125.81,57.75,119,66.59,119,76.58c0,16.32,18.13,29.55,40.5,29.55a55.27,55.27,0,0,0,9-.73c-1-.76-1.87-1.56-2.72-2.38a23,23,0,0,0,7.3,1.18h.83a53.74,53.74,0,0,1-5.41,1.2c7.89,6.27,19.08,10.19,31.5,10.19a52.31,52.31,0,0,0,28.29-7.89,52.31,52.31,0,0,0,28.29,7.89,53.15,53.15,0,0,0,26-6.49,55.61,55.61,0,0,0,17.27,2.69c23.89,0,43.25-14.5,43.25-32.38C343.1,63.13,327,49.65,306.14,47.37ZM271,103.7l.17,0h0Z"/><path class="cls-3" d="M229.52,104.36c0,20.49-22.19,37.09-49.55,37.09q-2.09,0-4.13-.13a26.17,26.17,0,0,1-9.79,1.88H59.39a26.14,26.14,0,0,1-9.47-1.76c-25.6,0-46.33-15.18-46.33-33.85,0-14.57,12.62-27,30.32-31.77a44.31,44.31,0,0,1,83-28.66,54.18,54.18,0,0,1,13.54-1.7c18.1,0,34,8.81,43.12,22.11,2.1-.2,4.25-.31,6.43-.31C207.33,67.26,229.52,83.87,229.52,104.36Z"/><path class="cls-4" d="M226.29,97.33c0,20.49-22.19,37.09-49.55,37.09q-2.09,0-4.13-.13a26.17,26.17,0,0,1-9.79,1.88H56.16a26.14,26.14,0,0,1-9.47-1.76C21.1,134.38.37,119.24.37,100.56.37,86,13,73.57,30.68,68.79a44.31,44.31,0,0,1,83-28.66,54.18,54.18,0,0,1,13.54-1.7c18.1,0,34,8.81,43.12,22.11,2.1-.2,4.25-.31,6.43-.31C204.1,60.23,226.29,76.83,226.29,97.33Z"/><path class="cls-5" id="f1" d="M272.58,155.94l-12.83-8,0-4.42,6.64,4.14a1.41,1.41,0,0,0,1.95-.45l.47-.76a1.41,1.41,0,0,0-.45-1.95l-8.63-5.39,0-3.21,5.06,3.16a1.41,1.41,0,0,0,1.95-.45l.47-.76a1.41,1.41,0,0,0-.45-1.95l-7.06-4.41,0-3.69,1.61-.94,3.22-1.86,3.19,1.81.4,8.31a1.41,1.41,0,0,0,1.48,1.34l.89,0a1.41,1.41,0,0,0,1.34-1.48l-.29-6,2.79,1.58.49,10.16a1.41,1.41,0,0,0,1.48,1.34l.89,0a1.41,1.41,0,0,0,1.34-1.48l-.38-7.81,3.85,2.18.73,15.1a1.41,1.41,0,0,0,1.48,1.34l.89,0a1.41,1.41,0,0,0,1.34-1.48l-.62-12.76,4.23,2.4a1.41,1.41,0,0,0,1.93-.53h0l.28-.49.16-.28h0a1.41,1.41,0,0,0-.53-1.93l-4.23-2.4,11.26-6a1.41,1.41,0,0,0,.58-1.91l-.42-.78a1.41,1.41,0,0,0-1.91-.58l-13.33,7.14-3.85-2.18,6.9-3.69a1.41,1.41,0,0,0,.58-1.91l-.42-.78a1.41,1.41,0,0,0-1.91-.58l-9,4.8-2.79-1.58,5.26-2.82a1.41,1.41,0,0,0,.58-1.91l-.42-.78a1.41,1.41,0,0,0-1.91-.58l-7.33,3.93-3.2-1.81,0-3V116.3l3.19-1.85,7.37,3.85a1.41,1.41,0,0,0,1.91-.6l.41-.79a1.41,1.41,0,0,0-.6-1.91l-5.29-2.76,2.77-1.61,9,4.71a1.41,1.41,0,0,0,1.91-.6l.41-.79a1.41,1.41,0,0,0-.6-1.91l-6.94-3.62,3.82-2.22,13.4,7a1.41,1.41,0,0,0,1.91-.6l.41-.79a1.41,1.41,0,0,0-.6-1.91L287.46,104l4.21-2.44a1.41,1.41,0,0,0,.51-1.93l-.45-.77h0a1.41,1.41,0,0,0-1.93-.51l-4.21,2.44L286.08,88a1.41,1.41,0,0,0-1.36-1.47l-.89,0a1.41,1.41,0,0,0-1.47,1.36L281.79,103,278,105.21l.3-7.82a1.41,1.41,0,0,0-1.36-1.47l-.89,0a1.41,1.41,0,0,0-1.47,1.36l-.39,10.17L271.39,109l.23-6a1.41,1.41,0,0,0-1.36-1.47l-.89,0a1.41,1.41,0,0,0-1.47,1.36l-.32,8.31-3.14,1.82-2.79-1.56-2-1.15v-3.72l7-4.45a1.41,1.41,0,0,0,.44-1.95l-.48-.75a1.41,1.41,0,0,0-1.95-.44l-5,3.19V99l8.6-5.44a1.41,1.41,0,0,0,.44-1.95l-.48-.75a1.41,1.41,0,0,0-1.95-.44l-6.61,4.18V90.2l12.78-8.08a1.41,1.41,0,0,0,.44-1.95l-.48-.75a1.41,1.41,0,0,0-1.95-.44L259.62,85.8V80.94a1.41,1.41,0,0,0-1.41-1.41h-.89a1.41,1.41,0,0,0-1.41,1.41V85.8L245.11,79a1.41,1.41,0,0,0-1.95.44l-.48.75a1.41,1.41,0,0,0,.44,1.95L255.9,90.2v4.42l-6.61-4.18a1.41,1.41,0,0,0-1.95.44l-.48.75a1.41,1.41,0,0,0,.44,1.95L255.9,99v3.21l-5-3.19a1.41,1.41,0,0,0-1.95.44l-.48.75a1.41,1.41,0,0,0,.44,1.95l7,4.45v3.63l-2.31,1.38L251,113.12l-3.21-1.82-.4-8.31a1.41,1.41,0,0,0-1.48-1.34l-.89,0a1.41,1.41,0,0,0-1.34,1.48l.29,6-2.79-1.58-.49-10.16a1.41,1.41,0,0,0-1.48-1.34l-.89,0A1.41,1.41,0,0,0,237,97.57l.38,7.81-3.85-2.18-.73-15.1a1.41,1.41,0,0,0-1.48-1.34l-.89,0a1.41,1.41,0,0,0-1.34,1.48l.62,12.76-4.23-2.4a1.41,1.41,0,0,0-1.93.53h0l-.36.64-.08.14a1.41,1.41,0,0,0,.53,1.93l4.23,2.4-11.26,6a1.41,1.41,0,0,0-.58,1.91l.42.78a1.41,1.41,0,0,0,1.91.58l13.33-7.14,3.85,2.18-6.9,3.69a1.41,1.41,0,0,0-.58,1.91l.42.78a1.41,1.41,0,0,0,1.91.58l9-4.8,2.79,1.58-5.26,2.82a1.41,1.41,0,0,0-.58,1.91l.42.78a1.41,1.41,0,0,0,1.91.58l7.33-3.93,3.2,1.81,0,3.52V122l-3.15,1.88-7.42-3.76a1.41,1.41,0,0,0-1.9.62l-.4.79a1.41,1.41,0,0,0,.62,1.9l5.32,2.7-2.75,1.64-9.08-4.6a1.41,1.41,0,0,0-1.9.62l-.4.79a1.41,1.41,0,0,0,.62,1.9l7,3.54-3.8,2.27-13.49-6.83a1.41,1.41,0,0,0-1.9.62l-.4.79a1.41,1.41,0,0,0,.62,1.9l11.39,5.77L224,137a1.41,1.41,0,0,0-.49,1.94h0l.46.76a1.41,1.41,0,0,0,1.94.49l4.18-2.49-.33,12.77a1.41,1.41,0,0,0,1.38,1.45l.89,0a1.41,1.41,0,0,0,1.45-1.38l.39-15.12,3.8-2.27-.2,7.82a1.41,1.41,0,0,0,1.38,1.45l.89,0a1.41,1.41,0,0,0,1.45-1.38l.26-10.17,2.75-1.64-.15,6a1.41,1.41,0,0,0,1.38,1.45l.89,0a1.41,1.41,0,0,0,1.45-1.38L248,127l3.17-1.89,2.09,1.18,2.66,1.53,0,3.68-7,4.49a1.41,1.41,0,0,0-.43,2l.48.75a1.41,1.41,0,0,0,2,.43l5-3.22,0,3.21-8.57,5.49a1.41,1.41,0,0,0-.43,2l.48.75a1.41,1.41,0,0,0,2,.43l6.59-4.22,0,4.42-12.73,8.15a1.41,1.41,0,0,0-.43,2l.48.75a1.41,1.41,0,0,0,2,.43l10.75-6.89,0,4.87a1.41,1.41,0,0,0,1.42,1.4h.89a1.41,1.41,0,0,0,1.4-1.42l0-4.87,10.83,6.76a1.41,1.41,0,0,0,1.95-.45l.47-.76A1.41,1.41,0,0,0,272.58,155.94Z"/><path class="cls-6" id="f2" d="M71.38,170.48l-12.83-8,0-4.42,6.64,4.14a1.41,1.41,0,0,0,1.95-.45l.47-.76a1.41,1.41,0,0,0-.45-1.95l-8.63-5.39,0-3.21,5.06,3.16a1.41,1.41,0,0,0,1.95-.45l.47-.76a1.41,1.41,0,0,0-.45-1.95l-7.06-4.41,0-3.69,1.61-.94,3.22-1.86,3.19,1.81.4,8.31A1.41,1.41,0,0,0,68.33,151l.89,0a1.41,1.41,0,0,0,1.34-1.48l-.29-6,2.79,1.58.49,10.16A1.41,1.41,0,0,0,75,156.63l.89,0a1.41,1.41,0,0,0,1.34-1.48l-.38-7.81,3.85,2.18.73,15.1A1.41,1.41,0,0,0,83,165.92l.89,0a1.41,1.41,0,0,0,1.34-1.48l-.62-12.76L88.8,154a1.41,1.41,0,0,0,1.93-.53h0L91,153l.16-.28h0a1.41,1.41,0,0,0-.53-1.93l-4.23-2.4,11.26-6a1.41,1.41,0,0,0,.58-1.91l-.42-.78a1.41,1.41,0,0,0-1.91-.58l-13.33,7.14-3.85-2.18,6.9-3.69a1.41,1.41,0,0,0,.58-1.91l-.42-.78a1.41,1.41,0,0,0-1.91-.58l-9,4.8-2.79-1.58,5.26-2.82a1.41,1.41,0,0,0,.58-1.91l-.42-.78a1.41,1.41,0,0,0-1.91-.58l-7.33,3.93-3.2-1.81,0-3v-2.52L68.25,129l7.37,3.85a1.41,1.41,0,0,0,1.91-.6l.41-.79a1.41,1.41,0,0,0-.6-1.91l-5.29-2.76,2.77-1.61,9,4.71a1.41,1.41,0,0,0,1.91-.6l.41-.79a1.41,1.41,0,0,0-.6-1.91L78.63,123l3.82-2.22,13.4,7a1.41,1.41,0,0,0,1.91-.6l.41-.79a1.41,1.41,0,0,0-.6-1.91l-11.32-5.91,4.21-2.44a1.41,1.41,0,0,0,.51-1.93l-.45-.77h0a1.41,1.41,0,0,0-1.93-.51l-4.21,2.44.49-12.76a1.41,1.41,0,0,0-1.36-1.47l-.89,0a1.41,1.41,0,0,0-1.47,1.36l-.58,15.11-3.82,2.22.3-7.82a1.41,1.41,0,0,0-1.36-1.47l-.89,0a1.41,1.41,0,0,0-1.47,1.36L73,122l-2.77,1.61.23-6a1.41,1.41,0,0,0-1.36-1.47l-.89,0a1.41,1.41,0,0,0-1.47,1.36l-.32,8.31-3.14,1.82L60.46,126l-2-1.15v-3.72l7-4.45a1.41,1.41,0,0,0,.44-1.95l-.48-.75a1.41,1.41,0,0,0-1.95-.44l-5,3.19v-3.21l8.6-5.44a1.41,1.41,0,0,0,.44-1.95l-.48-.75A1.41,1.41,0,0,0,65,105l-6.61,4.18v-4.42L71.2,96.66a1.41,1.41,0,0,0,.44-1.95L71.16,94a1.41,1.41,0,0,0-1.95-.44l-10.79,6.83V95.48A1.41,1.41,0,0,0,57,94.06h-.89a1.41,1.41,0,0,0-1.41,1.41v4.87L43.9,93.52A1.41,1.41,0,0,0,42,94l-.48.75a1.41,1.41,0,0,0,.44,1.95l12.78,8.08v4.42L48.08,105a1.41,1.41,0,0,0-1.95.44l-.48.75a1.41,1.41,0,0,0,.44,1.95l8.6,5.44v3.21l-5-3.19a1.41,1.41,0,0,0-1.95.44l-.48.75a1.41,1.41,0,0,0,.44,1.95l7,4.45v3.63l-2.31,1.38-2.55,1.49-3.21-1.82-.4-8.31a1.41,1.41,0,0,0-1.48-1.34l-.89,0a1.41,1.41,0,0,0-1.34,1.48l.29,6L40,122.1l-.49-10.16A1.41,1.41,0,0,0,38,110.59l-.89,0a1.41,1.41,0,0,0-1.34,1.48l.38,7.81-3.85-2.18-.73-15.1a1.41,1.41,0,0,0-1.48-1.34l-.89,0a1.41,1.41,0,0,0-1.34,1.48l.62,12.76-4.23-2.4a1.41,1.41,0,0,0-1.93.53h0l-.36.64-.08.14a1.41,1.41,0,0,0,.53,1.93l4.23,2.4-11.26,6a1.41,1.41,0,0,0-.58,1.91l.42.78a1.41,1.41,0,0,0,1.91.58L30.51,121l3.85,2.18-6.9,3.69a1.41,1.41,0,0,0-.58,1.91l.42.78a1.41,1.41,0,0,0,1.91.58l9-4.8L41,126.91l-5.26,2.82a1.41,1.41,0,0,0-.58,1.91l.42.78a1.41,1.41,0,0,0,1.91.58l7.33-3.93,3.2,1.81,0,3.52v2.1l-3.15,1.88-7.42-3.76a1.41,1.41,0,0,0-1.9.62l-.4.79a1.41,1.41,0,0,0,.62,1.9l5.32,2.7-2.75,1.64-9.08-4.6a1.41,1.41,0,0,0-1.9.62l-.4.79a1.41,1.41,0,0,0,.62,1.9l7,3.54-3.8,2.27L17.3,140a1.41,1.41,0,0,0-1.9.62l-.4.79a1.41,1.41,0,0,0,.62,1.9L27,149.05l-4.18,2.49a1.41,1.41,0,0,0-.49,1.94h0l.46.76a1.41,1.41,0,0,0,1.94.49l4.18-2.49L28.59,165A1.41,1.41,0,0,0,30,166.46l.89,0a1.41,1.41,0,0,0,1.45-1.38L32.69,150l3.8-2.27-.2,7.82A1.41,1.41,0,0,0,37.66,157l.89,0A1.41,1.41,0,0,0,40,155.64l.26-10.17L43,143.83l-.15,6a1.41,1.41,0,0,0,1.38,1.45l.89,0a1.41,1.41,0,0,0,1.45-1.38l.21-8.32L50,139.68l2.09,1.18,2.66,1.53,0,3.68-7,4.49a1.41,1.41,0,0,0-.43,2l.48.75a1.41,1.41,0,0,0,2,.43l5-3.22,0,3.21-8.57,5.49a1.41,1.41,0,0,0-.43,2l.48.75a1.41,1.41,0,0,0,2,.43l6.59-4.22,0,4.42L42.1,170.65a1.41,1.41,0,0,0-.43,2l.48.75a1.41,1.41,0,0,0,2,.43l10.75-6.89,0,4.87a1.41,1.41,0,0,0,1.42,1.4h.89a1.41,1.41,0,0,0,1.4-1.42l0-4.87,10.83,6.76a1.41,1.41,0,0,0,1.95-.45l.47-.76A1.41,1.41,0,0,0,71.38,170.48Z"/><path class="cls-7" id="f3" d="M178.11,195.83l-10.47-3-.9-3.05,5.42,1.54a1,1,0,0,0,1.26-.7l.17-.62a1,1,0,0,0-.7-1.26l-7-2-.66-2.21,4.13,1.17a1,1,0,0,0,1.26-.7l.17-.62a1,1,0,0,0-.7-1.26l-5.76-1.63-.75-2.54.93-1,1.85-1.93,2.57.61,1.94,5.66a1,1,0,0,0,1.29.63l.61-.21a1,1,0,0,0,.63-1.29L172,177.43l2.25.53,2.38,6.93a1,1,0,0,0,1.29.63l.61-.21a1,1,0,0,0,.63-1.29l-1.83-5.33,3.1.74,3.53,10.3a1,1,0,0,0,1.29.63l.61-.21a1,1,0,0,0,.63-1.29l-3-8.7,3.41.81a1,1,0,0,0,1.22-.75h0l.09-.4.05-.23h0a1,1,0,0,0-.75-1.22l-3.41-.81,6.58-6.42a1,1,0,0,0,0-1.44l-.45-.46a1,1,0,0,0-1.44,0l-7.79,7.6-3.1-.74,4-3.93a1,1,0,0,0,0-1.44l-.45-.46a1,1,0,0,0-1.44,0l-5.24,5.12-2.25-.53,3.07-3a1,1,0,0,0,0-1.44l-.45-.46a1,1,0,0,0-1.44,0l-4.28,4.18-2.57-.61-.61-2.06-.5-1.74,1.83-1.92,5.87,1.19a1,1,0,0,0,1.2-.8l.13-.63a1,1,0,0,0-.8-1.2l-4.21-.85,1.6-1.67,7.18,1.45a1,1,0,0,0,1.2-.8l.13-.63a1,1,0,0,0-.8-1.2l-5.52-1.12,2.2-2.3,10.67,2.16a1,1,0,0,0,1.2-.8l.13-.63a1,1,0,0,0-.8-1.2l-9-1.82,2.42-2.53a1,1,0,0,0,0-1.44l-.46-.44h0a1,1,0,0,0-1.44,0l-2.42,2.53-2.22-8.92a1,1,0,0,0-1.23-.74l-.62.15a1,1,0,0,0-.74,1.23l2.63,10.56-2.2,2.3-1.36-5.47a1,1,0,0,0-1.23-.74l-.62.15a1,1,0,0,0-.74,1.23l1.77,7.11-1.6,1.67-1-4.17a1,1,0,0,0-1.23-.74l-.62.15a1,1,0,0,0-.74,1.23l1.45,5.81-1.81,1.89-2.24-.52L160,166.9l-.74-2.57,4-4.48a1,1,0,0,0-.09-1.44l-.48-.42a1,1,0,0,0-1.44.09l-2.85,3.22-.64-2.22,4.86-5.48a1,1,0,0,0-.09-1.44l-.48-.42a1,1,0,0,0-1.44.09L156.87,156,156,153l7.22-8.15a1,1,0,0,0-.09-1.44l-.48-.43a1,1,0,0,0-1.44.09l-6.1,6.88-1-3.36a1,1,0,0,0-1.26-.69h0l-.61.18h0a1,1,0,0,0-.69,1.26l1,3.36-8.83-2.56a1,1,0,0,0-1.26.69l-.18.62a1,1,0,0,0,.69,1.26l10.45,3,.89,3.06-5.41-1.57a1,1,0,0,0-1.26.69l-.18.62a1,1,0,0,0,.69,1.26l7,2,.64,2.22-4.13-1.2a1,1,0,0,0-1.26.69l-.18.62a1,1,0,0,0,.69,1.26l5.75,1.67.73,2.51L156.11,169l-1.47,1.54-2.58-.61-1.94-5.66a1,1,0,0,0-1.29-.63l-.61.21a1,1,0,0,0-.63,1.29l1.39,4.06-2.25-.53-2.38-6.93a1,1,0,0,0-1.29-.63l-.61.21a1,1,0,0,0-.63,1.29l1.83,5.33-3.1-.74L137,156.89a1,1,0,0,0-1.29-.63l-.61.21a1,1,0,0,0-.63,1.29l3,8.7-3.41-.81a1,1,0,0,0-1.22.75h0l-.12.51,0,.11a1,1,0,0,0,.75,1.22l3.41.81-6.58,6.42a1,1,0,0,0,0,1.44l.45.46a1,1,0,0,0,1.44,0l7.79-7.6,3.1.74-4,3.93a1,1,0,0,0,0,1.44l.45.46a1,1,0,0,0,1.44,0l5.24-5.12,2.25.53-3.07,3a1,1,0,0,0,0,1.44l.45.46a1,1,0,0,0,1.44,0l4.28-4.18,2.57.61.72,2.43.43,1.45-1.8,1.93-5.88-1.11a1,1,0,0,0-1.19.81l-.12.63a1,1,0,0,0,.81,1.19l4.22.8-1.58,1.69-7.2-1.36a1,1,0,0,0-1.19.81l-.12.63a1,1,0,0,0,.81,1.19l5.53,1-2.17,2.33-10.69-2a1,1,0,0,0-1.19.81l-.12.63a1,1,0,0,0,.81,1.19l9,1.71-2.39,2.56a1,1,0,0,0,0,1.44h0l.47.44a1,1,0,0,0,1.44,0l2.39-2.56,2.33,8.89a1,1,0,0,0,1.24.73l.62-.16a1,1,0,0,0,.73-1.24l-2.76-10.53,2.17-2.33,1.43,5.45a1,1,0,0,0,1.24.73l.62-.16a1,1,0,0,0,.73-1.24l-1.85-7.08,1.58-1.69,1.09,4.16a1,1,0,0,0,1.24.73l.62-.16a1,1,0,0,0,.73-1.24l-1.52-5.79,1.81-1.94,1.68.4,2.14.52.75,2.54-3.95,4.51a1,1,0,0,0,.1,1.44l.48.42a1,1,0,0,0,1.44-.1l2.83-3.23.66,2.21L158.45,193a1,1,0,0,0,.1,1.44l.48.42a1,1,0,0,0,1.44-.1l3.71-4.24.9,3.05-7.17,8.19a1,1,0,0,0,.1,1.44l.48.42a1,1,0,0,0,1.44-.1l6.06-6.92,1,3.36a1,1,0,0,0,1.26.69h0l.19-.06.43-.13a1,1,0,0,0,.69-1.26l-1-3.36,8.84,2.51a1,1,0,0,0,1.26-.7l.17-.62A1,1,0,0,0,178.11,195.83Z"/></g></g></svg>